<?xml version="1.0" encoding="UTF-8" standalone="no"?>
<!-- Created with Inkscape (http://www.inkscape.org/) -->

<svg
   xmlns:dc="http://purl.org/dc/elements/1.1/"
   xmlns:cc="http://creativecommons.org/ns#"
   xmlns:rdf="http://www.w3.org/1999/02/22-rdf-syntax-ns#"
   xmlns:svg="http://www.w3.org/2000/svg"
   xmlns="http://www.w3.org/2000/svg"
   xmlns:sodipodi="http://sodipodi.sourceforge.net/DTD/sodipodi-0.dtd"
   xmlns:inkscape="http://www.inkscape.org/namespaces/inkscape"
   width="391.13205"
   height="280.82242"
   id="svg2"
   version="1.1"
   inkscape:version="0.48.5 r10040"
   sodipodi:docname="Neues Dokument 1">
  <defs
     id="defs4" />
  <sodipodi:namedview
     id="base"
     pagecolor="#ffffff"
     bordercolor="#666666"
     borderopacity="1.0"
     inkscape:pageopacity="0.0"
     inkscape:pageshadow="2"
     inkscape:zoom="0.98994949"
     inkscape:cx="94.99973"
     inkscape:cy="74.736336"
     inkscape:document-units="px"
     inkscape:current-layer="layer1"
     showgrid="false"
     fit-margin-top="0"
     fit-margin-left="0"
     fit-margin-right="0"
     fit-margin-bottom="0"
     inkscape:window-width="1920"
     inkscape:window-height="1018"
     inkscape:window-x="1072"
     inkscape:window-y="427"
     inkscape:window-maximized="1" />
  <metadata
     id="metadata7">
    <rdf:RDF>
      <cc:Work
         rdf:about="">
        <dc:format>image/svg+xml</dc:format>
        <dc:type
           rdf:resource="http://purl.org/dc/dcmitype/StillImage" />
        <dc:title></dc:title>
      </cc:Work>
    </rdf:RDF>
  </metadata>
  <g
     inkscape:label="Ebene 1"
     inkscape:groupmode="layer"
     id="layer1"
     transform="translate(-190.91884,-162.41777)">
    <a
       id="a3776">
      <rect
         y="288.68686"
         x="308.09653"
         height="154.55333"
         width="153.5432"
         id="rect2996"
         style="fill:#cd0000;fill-opacity:1;stroke:none" />
    </a>
    <path
       sodipodi:type="arc"
       style="fill:#000000;fill-opacity:1;stroke:none"
       id="path3766"
       sodipodi:cx="220.21326"
       sodipodi:cy="350.30615"
       sodipodi:rx="29.294424"
       sodipodi:ry="26.263966"
       d="m 249.50768,350.30615 c 0,14.50519 -13.11556,26.26397 -29.29442,26.26397 -16.17887,0 -29.29443,-11.75878 -29.29443,-26.26397 0,-14.50519 13.11556,-26.26396 29.29443,-26.26396 16.17886,0 29.29442,11.75877 29.29442,26.26396 z"
       transform="matrix(1.0517242,0,0,1.1730769,-9.875112,-65.175599)" />
    <path
       transform="matrix(1.0517242,0,0,1.1730769,28.510685,-178.31268)"
       d="m 249.50768,350.30615 c 0,14.50519 -13.11556,26.26397 -29.29442,26.26397 -16.17887,0 -29.29443,-11.75878 -29.29443,-26.26397 0,-14.50519 13.11556,-26.26396 29.29443,-26.26396 16.17886,0 29.29442,11.75877 29.29442,26.26396 z"
       sodipodi:ry="26.263966"
       sodipodi:rx="29.294424"
       sodipodi:cy="350.30615"
       sodipodi:cx="220.21326"
       id="path3768"
       style="fill:#000000;fill-opacity:1;stroke:none"
       sodipodi:type="arc" />
    <path
       sodipodi:type="arc"
       style="fill:#000000;fill-opacity:1;stroke:none"
       id="path3770"
       sodipodi:cx="220.21326"
       sodipodi:cy="350.30615"
       sodipodi:rx="29.294424"
       sodipodi:ry="26.263966"
       d="m 249.50768,350.30615 c 0,14.50519 -13.11556,26.26397 -29.29442,26.26397 -16.17887,0 -29.29443,-11.75878 -29.29443,-26.26397 0,-14.50519 13.11556,-26.26396 29.29443,-26.26396 16.17886,0 29.29442,11.75877 29.29442,26.26396 z"
       transform="matrix(1.0517242,0,0,1.1730769,153.7696,-217.70863)" />
    <path
       transform="matrix(1.0517242,0,0,1.1730769,280.24167,-178.31268)"
       d="m 249.50768,350.30615 c 0,14.50519 -13.11556,26.26397 -29.29442,26.26397 -16.17887,0 -29.29443,-11.75878 -29.29443,-26.26397 0,-14.50519 13.11556,-26.26396 29.29443,-26.26396 16.17886,0 29.29442,11.75877 29.29442,26.26396 z"
       sodipodi:ry="26.263966"
       sodipodi:rx="29.294424"
       sodipodi:cy="350.30615"
       sodipodi:cx="220.21326"
       id="path3772"
       style="fill:#000000;fill-opacity:1;stroke:none"
       sodipodi:type="arc" />
    <path
       sodipodi:type="arc"
       style="fill:#000000;fill-opacity:1;stroke:none"
       id="path3774"
       sodipodi:cx="220.21326"
       sodipodi:cy="350.30615"
       sodipodi:rx="29.294424"
       sodipodi:ry="26.263966"
       d="m 249.50768,350.30615 c 0,14.50519 -13.11556,26.26397 -29.29442,26.26397 -16.17887,0 -29.29443,-11.75878 -29.29443,-26.26397 0,-14.50519 13.11556,-26.26396 29.29443,-26.26396 16.17886,0 29.29442,11.75877 29.29442,26.26396 z"
       transform="matrix(1.0517242,0,0,1.1730769,319.63762,-65.175589)" />
  </g>
</svg>