<?xml version="1.0" encoding="UTF-8" standalone="no"?>
<!-- Created with Inkscape (http://www.inkscape.org/) -->

<svg
   xmlns:dc="http://purl.org/dc/elements/1.1/"
   xmlns:cc="http://creativecommons.org/ns#"
   xmlns:rdf="http://www.w3.org/1999/02/22-rdf-syntax-ns#"
   xmlns:svg="http://www.w3.org/2000/svg"
   xmlns="http://www.w3.org/2000/svg"
   xmlns:sodipodi="http://sodipodi.sourceforge.net/DTD/sodipodi-0.dtd"
   xmlns:inkscape="http://www.inkscape.org/namespaces/inkscape"
   width="32"
   height="32"
   id="svg2"
   version="1.1"
   inkscape:version="0.48.4 r9939"
   sodipodi:docname="hiorg-icon.svg">
  <defs
     id="defs4" />
  <sodipodi:namedview
     id="base"
     pagecolor="#ffffff"
     bordercolor="#666666"
     borderopacity="1.0"
     inkscape:pageopacity="0"
     inkscape:pageshadow="2"
     inkscape:zoom="15.839192"
     inkscape:cx="23.406472"
     inkscape:cy="20.929885"
     inkscape:document-units="px"
     inkscape:current-layer="layer1"
     showgrid="false"
     fit-margin-top="0"
     fit-margin-left="0"
     fit-margin-right="0"
     fit-margin-bottom="0"
     inkscape:window-width="1865"
     inkscape:window-height="1056"
     inkscape:window-x="55"
     inkscape:window-y="24"
     inkscape:window-maximized="1" />
  <metadata
     id="metadata7">
    <rdf:RDF>
      <cc:Work
         rdf:about="">
        <dc:format>image/svg+xml</dc:format>
        <dc:type
           rdf:resource="http://purl.org/dc/dcmitype/StillImage" />
        <dc:title></dc:title>
      </cc:Work>
    </rdf:RDF>
  </metadata>
  <g
     inkscape:label="Ebene 1"
     inkscape:groupmode="layer"
     id="layer1"
     transform="translate(-190.91884,-411.24019)">
    <a
       id="a3776"
       transform="matrix(0.08183434,0,0,0.08183434,175.29513,400.96793)"
       style="fill:#ffffff">
      <rect
         y="288.68686"
         x="308.09653"
         height="154.55333"
         width="153.5432"
         id="rect2996"
         style="fill:#ffffff;fill-opacity:1;stroke:none" />
    </a>
    <path
       sodipodi:type="arc"
       style="fill:#ffffff;fill-opacity:1;stroke:none"
       id="path3766"
       sodipodi:cx="220.21326"
       sodipodi:cy="350.30615"
       sodipodi:rx="29.294424"
       sodipodi:ry="26.263966"
       d="m 249.50768,350.30615 a 29.294424,26.263966 0 1 1 -58.58885,0 29.294424,26.263966 0 1 1 58.58885,0 z"
       transform="matrix(0.08606716,0,0,0.09599797,174.487,395.63432)" />
    <path
       transform="matrix(0.08606716,0,0,0.09599797,177.62828,386.37582)"
       d="m 249.50768,350.30615 a 29.294424,26.263966 0 1 1 -58.58885,0 29.294424,26.263966 0 1 1 58.58885,0 z"
       sodipodi:ry="26.263966"
       sodipodi:rx="29.294424"
       sodipodi:cy="350.30615"
       sodipodi:cx="220.21326"
       id="path3768"
       style="fill:#ffffff;fill-opacity:1;stroke:none"
       sodipodi:type="arc" />
    <path
       sodipodi:type="arc"
       style="fill:#ffffff;fill-opacity:1;stroke:none"
       id="path3770"
       sodipodi:cx="220.21326"
       sodipodi:cy="350.30615"
       sodipodi:rx="29.294424"
       sodipodi:ry="26.263966"
       d="m 249.50768,350.30615 a 29.294424,26.263966 0 1 1 -58.58885,0 29.294424,26.263966 0 1 1 58.58885,0 z"
       transform="matrix(0.08606716,0,0,0.09599797,187.87876,383.15188)" />
    <path
       transform="matrix(0.08606716,0,0,0.09599797,198.22852,386.37582)"
       d="m 249.50768,350.30615 a 29.294424,26.263966 0 1 1 -58.58885,0 29.294424,26.263966 0 1 1 58.58885,0 z"
       sodipodi:ry="26.263966"
       sodipodi:rx="29.294424"
       sodipodi:cy="350.30615"
       sodipodi:cx="220.21326"
       id="path3772"
       style="fill:#ffffff;fill-opacity:1;stroke:none"
       sodipodi:type="arc" />
    <path
       sodipodi:type="arc"
       style="fill:#ffffff;fill-opacity:1;stroke:none"
       id="path3774"
       sodipodi:cx="220.21326"
       sodipodi:cy="350.30615"
       sodipodi:rx="29.294424"
       sodipodi:ry="26.263966"
       d="m 249.50768,350.30615 a 29.294424,26.263966 0 1 1 -58.58885,0 29.294424,26.263966 0 1 1 58.58885,0 z"
       transform="matrix(0.08606716,0,0,0.09599797,201.45246,395.63432)" />
  </g>
</svg>
